<svg viewBox="0 0 730 275"
     xmlns="http://www.w3.org/2000/svg"
     fill="#A854F7"
>
    <path d="M671.914 155.603L667.963 145.499C671.387 142.065 675.734 139.358 681.003 137.377C686.271 135.264 691.474 134.207 696.611 134.207C718.87 134.207 730 153.49 730 192.056C730 197.339 729.671 205.132 729.012 215.434C728.485 225.736 728.222 233.462 728.222 238.613C727.168 242.707 725.127 244.755 722.097 244.755C719.726 244.755 717.553 243.566 715.577 241.189C713.602 238.811 712.614 236.17 712.614 233.264C712.614 232.339 712.68 231.679 712.811 231.283C704.645 239.207 695.952 243.17 686.732 243.17C679.751 243.17 673.627 240.66 668.358 235.641C663.221 230.49 660.653 224.283 660.653 217.019C660.653 204.736 665.395 193.641 674.878 183.735C684.493 173.83 695.359 168.877 707.477 168.877C708.004 168.877 708.531 168.943 709.058 169.075C709.584 169.075 710.177 169.141 710.836 169.273C711.626 169.405 712.219 169.471 712.614 169.471C711.56 154.018 705.435 146.292 694.24 146.292C687.654 146.292 680.212 149.396 671.914 155.603ZM713.207 217.613C713.47 208.368 713.602 201.368 713.602 196.613C713.602 192.651 713.47 187.103 713.207 179.971H711.626C702.274 180.103 693.713 183.603 685.942 190.471C678.302 197.339 674.483 205.66 674.483 215.434C674.483 219.66 675.734 223.028 678.237 225.538C680.871 228.047 684.032 229.302 687.72 229.302C693.515 229.302 702.011 225.405 713.207 217.613Z"/>
    <path d="M609.649 68.9754L610.307 70.205C602.639 76.4601 576.179 98.8704 575.159 113.208C573.952 130.174 591.464 140.625 592.475 170.474C593.486 200.322 571.336 202.332 577.306 229.383C583.275 256.434 584.834 259.117 584.834 259.117L583.459 260.123C583.459 260.123 580.9 255.54 569.148 231.395C557.396 207.25 581.456 202.872 581.456 172.709C581.456 142.546 563.076 132.06 564.283 113.208C565.489 94.3559 609.649 68.9754 609.649 68.9754Z"/>
    <path d="M618.509 79.9065L620.174 79.7951C619.062 86.4354 613.095 113.118 621.701 121.588C630.307 130.058 634.333 132.287 635.027 141.426C635.721 150.565 621.285 161.933 622.118 163.27C622.95 164.607 659.625 180.884 660.428 202.168C661.231 223.452 602.546 249.754 602.546 249.754L601.991 248.305C610.041 242.814 651.961 218.103 652.377 202.168C652.794 186.233 616.61 169.008 615.038 164.162C613.467 159.316 624.616 150.463 623.506 141.092C622.421 131.936 612.262 126.046 609.347 117.242C606.432 108.437 618.509 79.9065 618.509 79.9065Z"/>
    <path d="M150.537 155.603L146.586 145.499C150.01 142.065 154.357 139.358 159.625 137.377C164.894 135.264 170.097 134.207 175.233 134.207C197.493 134.207 208.623 153.49 208.623 192.056C208.623 197.339 208.294 205.132 207.635 215.434C207.108 225.736 206.845 233.462 206.845 238.613C205.791 242.707 203.749 244.755 200.72 244.755C198.349 244.755 196.176 243.566 194.2 241.189C192.225 238.811 191.237 236.17 191.237 233.264C191.237 232.339 191.303 231.679 191.434 231.283C183.268 239.207 174.575 243.17 165.355 243.17C158.374 243.17 152.249 240.66 146.981 235.641C141.844 230.49 139.276 224.283 139.276 217.019C139.276 204.736 144.017 193.641 153.501 183.735C163.116 173.83 173.982 168.877 186.1 168.877C186.627 168.877 187.154 168.943 187.68 169.075C188.207 169.075 188.8 169.141 189.459 169.273C190.249 169.405 190.842 169.471 191.237 169.471C190.183 154.018 184.058 146.292 172.863 146.292C166.277 146.292 158.835 149.396 150.537 155.603ZM191.829 217.613C192.093 208.368 192.225 201.368 192.225 196.613C192.225 192.651 192.093 187.103 191.829 179.971H190.249C180.897 180.103 172.336 183.603 164.565 190.471C156.925 197.339 153.106 205.66 153.106 215.434C153.106 219.66 154.357 223.028 156.859 225.538C159.494 228.047 162.655 229.302 166.343 229.302C172.138 229.302 180.634 225.405 191.829 217.613Z"/>
    <path d="M291.207 142.924L290.219 151.443C284.687 150.65 279.946 150.254 275.994 150.254C266.906 150.254 259.398 153.028 253.471 158.575C247.544 163.99 243.461 170.462 241.222 177.99C239.115 185.386 238.061 193.641 238.061 202.754C238.061 206.981 238.324 210.745 238.851 214.047C239.378 217.349 240.3 220.585 241.617 223.754C243.066 226.924 245.239 229.434 248.137 231.283C251.166 233 254.854 233.858 259.201 233.858C264.996 233.858 272.372 232.736 281.329 230.49C284.095 229.434 286.268 228.905 287.849 228.905C291.01 228.905 292.92 232.604 293.578 240C281.987 243.698 271.253 245.547 261.374 245.547C247.017 245.547 237.271 242.047 232.134 235.047C227.129 227.915 224.626 216.424 224.626 200.575C224.626 191.33 225.219 183.273 226.404 176.405C227.721 169.405 229.96 162.933 233.122 156.99C236.283 150.915 240.827 146.292 246.754 143.122C252.813 139.952 260.189 138.367 268.882 138.367C278.629 138.367 286.07 139.886 291.207 142.924Z"/>
    <path d="M321.04 224.745C321.04 226.99 321.172 229.962 321.436 233.66C320.25 237.755 317.945 239.802 314.521 239.802C312.15 239.802 309.845 238.877 307.606 237.028C305.498 235.047 304.181 232.67 303.654 229.896C304.049 219.198 304.51 203.547 305.037 182.943C305.696 162.339 306.157 148.405 306.42 141.141L315.508 139.556C317.089 148.009 318.077 159.235 318.472 173.235C318.867 187.235 319.394 197.669 320.053 204.537C322.555 200.839 329.668 191.198 341.39 175.613C353.113 160.028 361.081 148.405 365.296 140.745C368.194 140.216 370.038 139.952 370.828 139.952C373.331 139.952 375.043 141.075 375.965 143.32C377.019 145.565 377.677 149.792 377.941 155.999L381.694 237.622C380.509 241.585 378.204 243.566 374.78 243.566C372.409 243.566 370.104 242.641 367.865 240.792C365.757 238.811 364.44 236.434 363.913 233.66C364.045 229.302 364.374 218.67 364.901 201.764C365.56 184.726 366.086 172.641 366.482 165.509C343.959 191.264 328.811 211.009 321.04 224.745Z"/>
    <path d="M376.755 259.019L373.594 250.5C377.941 248.783 381.892 246.075 385.448 242.377C388.873 238.679 391.705 234.849 393.944 230.887C396.183 226.792 398.093 221.707 399.673 215.632C401.254 209.556 402.374 204.273 403.032 199.783C403.822 195.16 404.415 189.481 404.81 182.745C405.205 176.009 405.403 170.99 405.403 167.688C405.535 164.254 405.6 159.698 405.6 154.018C405.6 145.962 406.325 141.141 407.774 139.556C409.618 137.575 419.826 136.584 438.397 136.584C453.017 136.584 461.315 136.518 463.291 136.386C463.554 190.009 464.213 224.811 465.267 240.792C463.95 244.755 461.645 246.736 458.352 246.736C456.113 246.736 453.939 245.811 451.832 243.962C449.725 242.113 448.407 239.868 447.881 237.226C447.749 232.075 447.683 224.415 447.683 214.245C447.683 209.226 447.683 201.632 447.683 191.462C447.815 181.292 447.881 173.632 447.881 168.481C447.881 158.971 447.815 151.839 447.683 147.084C442.151 148.009 436.685 148.537 431.285 148.669C425.884 148.801 422.065 148.999 419.826 149.264C419.43 153.622 419.101 160.094 418.838 168.679C418.574 177.264 418.311 184.858 418.047 191.462C417.916 197.934 417.125 205.33 415.677 213.651C414.228 221.839 412.12 228.839 409.354 234.651C406.72 240.33 402.571 245.415 396.907 249.906C391.375 254.528 384.658 257.566 376.755 259.019Z"/>
    <path d="M560.891 221.971L562.866 230.688C557.071 232.802 548.444 235.179 536.985 237.821C525.657 240.33 517.228 241.585 511.696 241.585C506.032 241.585 501.093 239.736 496.878 236.038C492.663 232.207 489.502 227.387 487.395 221.575C485.287 215.632 483.707 209.82 482.653 204.141C481.731 198.33 481.27 192.651 481.27 187.103C481.27 154.084 496.154 137.575 525.921 137.575C533.033 137.575 539.29 139.886 544.69 144.509C550.09 148.999 552.79 154.877 552.79 162.141C552.79 166.103 551.671 169.603 549.432 172.641C547.324 175.679 544.69 178.122 541.529 179.971C538.499 181.688 534.548 183.273 529.675 184.726C524.933 186.179 520.718 187.235 517.03 187.896C513.342 188.556 508.93 189.283 503.793 190.075C498.656 190.868 495.1 191.462 493.124 191.858C493.256 195.688 493.453 199.056 493.717 201.962C494.112 204.868 494.771 208.037 495.693 211.471C496.746 214.773 498.063 217.547 499.644 219.792C501.356 221.905 503.661 223.688 506.559 225.141C509.457 226.594 512.881 227.321 516.833 227.321C521.574 227.321 527.37 226.924 534.219 226.132C541.068 225.207 547.127 224.283 552.395 223.358C557.796 222.434 560.627 221.971 560.891 221.971ZM493.914 179.575C511.827 174.424 526.514 169.009 537.973 163.33C537.051 158.971 535.799 155.801 534.219 153.82C532.638 151.839 530.267 150.848 527.106 150.848C519.072 150.848 511.762 153.622 505.176 159.169C498.722 164.716 494.968 171.518 493.914 179.575Z"/>
    <path d="M65.5871 0L66.5382 1.76901C55.4661 10.7681 17.2593 43.0093 15.7869 63.6361C14.0444 88.0456 39.3305 103.081 40.7903 146.023C42.2502 188.966 10.2665 191.857 18.8864 230.775C27.5063 269.693 29.7562 273.553 29.7562 273.553L27.7719 275C27.7719 275 24.077 268.406 7.1079 233.67C-9.86124 198.933 24.8787 192.635 24.879 149.24C24.8793 105.845 -1.66028 90.7578 0.0821949 63.6361C1.82467 36.5143 65.5871 0 65.5871 0Z"/>
    <path d="M78.6095 15.0379L81.0056 14.877C79.4054 24.4588 70.8225 62.9613 83.2019 75.1834C95.5813 87.4055 101.372 90.6218 102.37 103.809C103.368 116.996 82.6029 133.399 83.8009 135.329C84.9989 137.259 137.754 160.745 138.909 191.457C140.065 222.17 55.6477 260.123 55.6477 260.123L54.849 258.032C66.4294 250.108 126.729 214.451 127.329 191.457C127.928 168.464 75.8788 143.608 73.6178 136.616C71.3568 129.623 87.3949 116.848 85.7975 103.326C84.2369 90.1147 69.6244 81.6161 65.4314 68.9116C61.2384 56.207 78.6095 15.0379 78.6095 15.0379Z"/>
    <path d="M176.645 125.25L172.689 124.371C172.162 119.918 171.254 116.285 169.965 113.473C165.102 113.121 160.238 112.945 155.375 112.945C151.215 112.945 145.033 113.121 136.83 113.473C136.479 114.703 135.805 118.98 134.809 126.305L131.029 125.953C129.857 119.684 129.271 114.293 129.271 109.781C129.271 109.547 129.271 109.137 129.271 108.551C129.33 107.965 129.359 107.525 129.359 107.232C129.418 107.232 130.385 107.232 132.26 107.232C134.135 107.174 135.102 107.145 135.16 107.145C136.684 104.039 137.914 100.699 138.852 97.125C139.848 93.4922 140.521 89.625 140.873 85.5234C141.225 81.3633 141.459 77.7305 141.576 74.625C141.693 71.4609 141.752 67.4473 141.752 62.584C141.752 57.7207 141.781 54.0879 141.84 51.6855C145.941 51.3926 155.082 51.2461 169.262 51.2461L171.195 106.354C172.133 106.471 173.1 106.559 174.096 106.617C175.092 106.676 176.059 106.734 176.996 106.793C176.82 108.023 176.732 109.547 176.732 111.363C176.732 112.301 176.762 113.766 176.82 115.758C176.879 117.809 176.908 119.332 176.908 120.328C176.908 122.32 176.82 123.961 176.645 125.25ZM142.191 106.617C143.773 106.617 146.146 106.676 149.311 106.793C152.475 106.852 154.818 106.881 156.342 106.881C158.568 106.881 160.883 106.793 163.285 106.617C163.402 102.926 163.461 97.1543 163.461 89.3027V71.8125C163.461 64.8398 163.52 59.6543 163.637 56.2559C161.996 56.1387 160.766 56.0801 159.945 56.0801C158.598 56.0801 156.635 56.168 154.057 56.3438C151.537 56.5195 149.838 56.6367 148.959 56.6953C148.783 59.332 148.578 63.4922 148.344 69.1758C148.109 74.8008 147.875 79.166 147.641 82.2715C147.406 85.377 146.82 89.2441 145.883 93.873C145.004 98.4434 143.773 102.691 142.191 106.617ZM182.354 93.39V86.37H204.134V93.39H182.354ZM212.416 67.7695L217.338 68.6484C217.338 69.8789 217.367 70.7871 217.426 71.373C220.648 69.3223 223.9 68.2969 227.182 68.2969C232.514 68.2969 236.674 70.582 239.662 75.1523C242.65 79.7227 244.145 84.9082 244.145 90.709C244.145 93.6387 243.91 96.4512 243.441 99.1465C243.031 101.783 242.27 104.508 241.156 107.32C240.043 110.074 238.314 112.301 235.971 114C233.686 115.641 230.902 116.461 227.621 116.461C224.516 116.461 221.527 115.641 218.656 114C218.891 124.254 219.096 131.871 219.271 136.852C218.744 138.668 217.719 139.576 216.195 139.576C215.141 139.576 214.115 139.137 213.119 138.258C212.182 137.438 211.596 136.412 211.361 135.182L212.416 67.7695ZM218.129 77.0859L218.393 105.475C219.096 106.881 220.18 108.023 221.645 108.902C223.109 109.723 224.721 110.133 226.479 110.133C228.764 110.133 230.697 109.4 232.279 107.936C233.92 106.471 235.062 104.537 235.707 102.135C236.41 99.6738 236.879 97.3887 237.113 95.2793C237.406 93.1699 237.553 90.9434 237.553 88.5996C237.553 78.6387 234.184 73.6582 227.445 73.6582C225.277 73.6582 223.256 73.9805 221.381 74.625C219.564 75.2109 218.48 76.0312 218.129 77.0859ZM320.17 125.25L316.215 124.371C315.688 119.918 314.779 116.285 313.49 113.473C308.627 113.121 303.764 112.945 298.9 112.945C294.74 112.945 288.559 113.121 280.355 113.473C280.004 114.703 279.33 118.98 278.334 126.305L274.555 125.953C273.383 119.684 272.797 114.293 272.797 109.781C272.797 109.547 272.797 109.137 272.797 108.551C272.855 107.965 272.885 107.525 272.885 107.232C272.943 107.232 273.91 107.232 275.785 107.232C277.66 107.174 278.627 107.145 278.686 107.145C280.209 104.039 281.439 100.699 282.377 97.125C283.373 93.4922 284.047 89.625 284.398 85.5234C284.75 81.3633 284.984 77.7305 285.102 74.625C285.219 71.4609 285.277 67.4473 285.277 62.584C285.277 57.7207 285.307 54.0879 285.365 51.6855C289.467 51.3926 298.607 51.2461 312.787 51.2461L314.721 106.354C315.658 106.471 316.625 106.559 317.621 106.617C318.617 106.676 319.584 106.734 320.521 106.793C320.346 108.023 320.258 109.547 320.258 111.363C320.258 112.301 320.287 113.766 320.346 115.758C320.404 117.809 320.434 119.332 320.434 120.328C320.434 122.32 320.346 123.961 320.17 125.25ZM285.717 106.617C287.299 106.617 289.672 106.676 292.836 106.793C296 106.852 298.344 106.881 299.867 106.881C302.094 106.881 304.408 106.793 306.811 106.617C306.928 102.926 306.986 97.1543 306.986 89.3027V71.8125C306.986 64.8398 307.045 59.6543 307.162 56.2559C305.521 56.1387 304.291 56.0801 303.471 56.0801C302.123 56.0801 300.16 56.168 297.582 56.3438C295.062 56.5195 293.363 56.6367 292.484 56.6953C292.309 59.332 292.104 63.4922 291.869 69.1758C291.635 74.8008 291.4 79.166 291.166 82.2715C290.932 85.377 290.346 89.2441 289.408 93.873C288.529 98.4434 287.299 102.691 285.717 106.617ZM329.047 76.0312L327.289 71.5488C328.812 70.0254 330.746 68.8242 333.09 67.9453C335.434 67.0078 337.748 66.5391 340.033 66.5391C349.936 66.5391 354.887 75.0938 354.887 92.2031C354.887 94.5469 354.74 98.0039 354.447 102.574C354.213 107.145 354.096 110.572 354.096 112.857C353.627 114.674 352.719 115.582 351.371 115.582C350.316 115.582 349.35 115.055 348.471 114C347.592 112.945 347.152 111.773 347.152 110.484C347.152 110.074 347.182 109.781 347.24 109.605C343.607 113.121 339.74 114.879 335.639 114.879C332.533 114.879 329.809 113.766 327.465 111.539C325.18 109.254 324.037 106.5 324.037 103.277C324.037 97.8281 326.146 92.9062 330.365 88.5117C334.643 84.1172 339.477 81.9199 344.867 81.9199C345.102 81.9199 345.336 81.9492 345.57 82.0078C345.805 82.0078 346.068 82.0371 346.361 82.0957C346.713 82.1543 346.977 82.1836 347.152 82.1836C346.684 75.3281 343.959 71.9004 338.979 71.9004C336.049 71.9004 332.738 73.2773 329.047 76.0312ZM347.416 103.541C347.533 99.4395 347.592 96.334 347.592 94.2246C347.592 92.4668 347.533 90.0059 347.416 86.8418H346.713C342.553 86.9004 338.744 88.4531 335.287 91.5C331.889 94.5469 330.189 98.2383 330.189 102.574C330.189 104.449 330.746 105.943 331.859 107.057C333.031 108.17 334.438 108.727 336.078 108.727C338.656 108.727 342.436 106.998 347.416 103.541ZM388.285 69.4395L392.24 70.3184L394.262 112.945C393.734 114.703 392.709 115.582 391.186 115.582C390.131 115.582 389.105 115.143 388.109 114.264C387.113 113.443 386.498 112.418 386.264 111.188C386.264 111.012 386.527 106.061 387.055 96.334V95.6309C385.414 95.5137 382.982 95.4551 379.76 95.4551C374.896 95.4551 371.234 95.3086 368.773 95.0156C369.066 98.4141 369.447 103.893 369.916 111.451C369.389 113.268 368.363 114.176 366.84 114.176C365.785 114.176 364.76 113.766 363.764 112.945C362.826 112.066 362.24 111.012 362.006 109.781C362.182 106.852 362.27 103.922 362.27 100.992C362.27 99.1172 362.24 96.3047 362.182 92.5547C362.123 88.8047 362.094 86.0215 362.094 84.2051C362.094 78.5801 362.27 73.8633 362.621 70.0547L366.576 71.0215C367.748 83.7363 368.363 90.2695 368.422 90.6211C378.441 91.1484 383.598 91.4121 383.891 91.4121C386.293 91.4121 387.494 91.2656 387.494 90.9727C387.494 89.8008 387.611 86.0801 387.846 79.8105C388.08 73.541 388.227 70.084 388.285 69.4395ZM409.115 106.705C409.115 107.701 409.174 109.02 409.291 110.66C408.764 112.477 407.738 113.385 406.215 113.385C405.16 113.385 404.135 112.975 403.139 112.154C402.201 111.275 401.615 110.221 401.381 108.99C401.557 104.244 401.762 97.3008 401.996 88.1602C402.289 79.0195 402.494 72.8379 402.611 69.6152L406.654 68.9121C407.357 72.6621 407.797 77.6426 407.973 83.8535C408.148 90.0645 408.383 94.6934 408.676 97.7402C409.789 96.0996 412.953 91.8223 418.168 84.9082C423.383 77.9941 426.928 72.8379 428.803 69.4395C430.092 69.2051 430.912 69.0879 431.264 69.0879C432.377 69.0879 433.139 69.5859 433.549 70.582C434.018 71.5781 434.311 73.4531 434.428 76.207L436.098 112.418C435.57 114.176 434.545 115.055 433.021 115.055C431.967 115.055 430.941 114.645 429.945 113.824C429.008 112.945 428.422 111.891 428.188 110.66C428.246 108.727 428.393 104.01 428.627 96.5098C428.92 88.9512 429.154 83.5898 429.33 80.4258C419.311 91.8516 412.572 100.611 409.115 106.705ZM478.725 105.475L479.604 109.342C477.025 110.279 473.188 111.334 468.09 112.506C463.051 113.619 459.301 114.176 456.84 114.176C454.32 114.176 452.123 113.355 450.248 111.715C448.373 110.016 446.967 107.877 446.029 105.299C445.092 102.662 444.389 100.084 443.92 97.5645C443.51 94.9863 443.305 92.4668 443.305 90.0059C443.305 75.3574 449.926 68.0332 463.168 68.0332C466.332 68.0332 469.115 69.0586 471.518 71.1094C473.92 73.1016 475.121 75.709 475.121 78.9316C475.121 80.6895 474.623 82.2422 473.627 83.5898C472.689 84.9375 471.518 86.0215 470.111 86.8418C468.764 87.6035 467.006 88.3066 464.838 88.9512C462.729 89.5957 460.854 90.0645 459.213 90.3574C457.572 90.6504 455.609 90.9727 453.324 91.3242C451.039 91.6758 449.457 91.9395 448.578 92.1152C448.637 93.8145 448.725 95.3086 448.842 96.5977C449.018 97.8867 449.311 99.293 449.721 100.816C450.189 102.281 450.775 103.512 451.479 104.508C452.24 105.445 453.266 106.236 454.555 106.881C455.844 107.525 457.367 107.848 459.125 107.848C461.234 107.848 463.812 107.672 466.859 107.32C469.906 106.91 472.602 106.5 474.945 106.09C477.348 105.68 478.607 105.475 478.725 105.475ZM448.93 86.666C456.898 84.3809 463.432 81.9785 468.529 79.459C468.119 77.5254 467.562 76.1191 466.859 75.2402C466.156 74.3613 465.102 73.9219 463.695 73.9219C460.121 73.9219 456.869 75.1523 453.939 77.6133C451.068 80.0742 449.398 83.0918 448.93 86.666ZM473.715 121.91L472.309 118.131C474.242 117.369 476 116.168 477.582 114.527C479.105 112.887 480.365 111.188 481.361 109.43C482.357 107.613 483.207 105.357 483.91 102.662C484.613 99.9668 485.111 97.623 485.404 95.6309C485.756 93.5801 486.02 91.0605 486.195 88.0723C486.371 85.084 486.459 82.8574 486.459 81.3926C486.518 79.8691 486.547 77.8477 486.547 75.3281C486.547 71.7539 486.869 69.6152 487.514 68.9121C488.334 68.0332 492.875 67.5938 501.137 67.5938C507.641 67.5938 511.332 67.5645 512.211 67.5059C512.328 91.2949 512.621 106.734 513.09 113.824C512.504 115.582 511.479 116.461 510.014 116.461C509.018 116.461 508.051 116.051 507.113 115.23C506.176 114.41 505.59 113.414 505.355 112.242C505.297 109.957 505.268 106.559 505.268 102.047C505.268 99.8203 505.268 96.4512 505.268 91.9395C505.326 87.4277 505.355 84.0293 505.355 81.7441C505.355 77.5254 505.326 74.3613 505.268 72.252C502.807 72.6621 500.375 72.8965 497.973 72.9551C495.57 73.0137 493.871 73.1016 492.875 73.2188C492.699 75.1523 492.553 78.0234 492.436 81.832C492.318 85.6406 492.201 89.0098 492.084 91.9395C492.025 94.8105 491.674 98.0918 491.029 101.783C490.385 105.416 489.447 108.521 488.217 111.1C487.045 113.619 485.199 115.875 482.68 117.867C480.219 119.918 477.23 121.266 473.715 121.91ZM523.373 76.0312L521.615 71.5488C523.139 70.0254 525.072 68.8242 527.416 67.9453C529.76 67.0078 532.074 66.5391 534.359 66.5391C544.262 66.5391 549.213 75.0938 549.213 92.2031C549.213 94.5469 549.066 98.0039 548.773 102.574C548.539 107.145 548.422 110.572 548.422 112.857C547.953 114.674 547.045 115.582 545.697 115.582C544.643 115.582 543.676 115.055 542.797 114C541.918 112.945 541.479 111.773 541.479 110.484C541.479 110.074 541.508 109.781 541.566 109.605C537.934 113.121 534.066 114.879 529.965 114.879C526.859 114.879 524.135 113.766 521.791 111.539C519.506 109.254 518.363 106.5 518.363 103.277C518.363 97.8281 520.473 92.9062 524.691 88.5117C528.969 84.1172 533.803 81.9199 539.193 81.9199C539.428 81.9199 539.662 81.9492 539.896 82.0078C540.131 82.0078 540.395 82.0371 540.688 82.0957C541.039 82.1543 541.303 82.1836 541.479 82.1836C541.01 75.3281 538.285 71.9004 533.305 71.9004C530.375 71.9004 527.064 73.2773 523.373 76.0312ZM541.742 103.541C541.859 99.4395 541.918 96.334 541.918 94.2246C541.918 92.4668 541.859 90.0059 541.742 86.8418H541.039C536.879 86.9004 533.07 88.4531 529.613 91.5C526.215 94.5469 524.516 98.2383 524.516 102.574C524.516 104.449 525.072 105.943 526.186 107.057C527.357 108.17 528.764 108.727 530.404 108.727C532.982 108.727 536.762 106.998 541.742 103.541Z"/>
</svg>