<svg viewBox="0 0 137 1094" fill="none" xmlns="http://www.w3.org/2000/svg">
    <path fill-rule="evenodd" clip-rule="evenodd"
          d="M101.333 966C116.061 966 128 977.939 128 992.667V1067.33C128 1082.06 116.061 1094 101.333 1094H26.6667C11.9391 1094 0 1082.06 0 1067.33V992.667C0 977.939 11.9391 966 26.6667 966H101.333ZM34.6667 976.667C27.3029 976.667 21.3333 982.636 21.3333 990V1059.33C21.3333 1066.7 27.3029 1072.67 34.6667 1072.67H104C111.364 1072.67 117.333 1066.7 117.333 1059.33V990C117.333 982.636 111.364 976.667 104 976.667H34.6667Z"
          fill="#A855F7" fill-opacity="0.1"/>
    <path fill-rule="evenodd" clip-rule="evenodd"
          d="M26.6667 956C11.9391 956 -1.28753e-06 944.061 0 929.333L6.52757e-06 854.667C7.81509e-06 839.939 11.9391 828 26.6667 828L101.333 828C116.061 828 128 839.939 128 854.667L128 929.333C128 944.061 116.061 956 101.333 956L26.6667 956ZM93.3333 945.333C100.697 945.333 106.667 939.364 106.667 932L106.667 862.667C106.667 855.303 100.697 849.333 93.3333 849.333L24 849.333C16.6362 849.333 10.6667 855.303 10.6667 862.667L10.6667 932C10.6667 939.364 16.6362 945.333 24 945.333L93.3333 945.333Z"
          fill="#A855F7" fill-opacity="0.1"/>
    <path fill-rule="evenodd" clip-rule="evenodd"
          d="M104.333 690C119.061 690 131 701.939 131 716.667V791.333C131 806.061 119.061 818 104.333 818H29.6667C14.9391 818 3 806.061 3 791.333V716.667C3 701.939 14.9391 690 29.6667 690H104.333ZM37.6667 700.667C30.3029 700.667 24.3333 706.636 24.3333 714V783.333C24.3333 790.697 30.3029 796.667 37.6667 796.667H107C114.364 796.667 120.333 790.697 120.333 783.333V714C120.333 706.636 114.364 700.667 107 700.667H37.6667Z"
          fill="#A855F7" fill-opacity="0.1"/>
    <path fill-rule="evenodd" clip-rule="evenodd"
          d="M29.6667 680C14.9391 680 3 668.061 3 653.333L3.00001 578.667C3.00001 563.939 14.9391 552 29.6667 552L104.333 552C119.061 552 131 563.939 131 578.667L131 653.333C131 668.061 119.061 680 104.333 680L29.6667 680ZM96.3333 669.333C103.697 669.333 109.667 663.364 109.667 656L109.667 586.667C109.667 579.303 103.697 573.333 96.3333 573.333L27 573.333C19.6362 573.333 13.6667 579.303 13.6667 586.667L13.6667 656C13.6667 663.364 19.6362 669.333 27 669.333L96.3333 669.333Z"
          fill="#A855F7" fill-opacity="0.1"/>
    <path fill-rule="evenodd" clip-rule="evenodd"
          d="M107.333 414C122.061 414 134 425.939 134 440.667V515.333C134 530.061 122.061 542 107.333 542H32.6667C17.9391 542 6 530.061 6 515.333V440.667C6 425.939 17.9391 414 32.6667 414H107.333ZM40.6667 424.667C33.3029 424.667 27.3333 430.636 27.3333 438V507.333C27.3333 514.697 33.3029 520.667 40.6667 520.667H110C117.364 520.667 123.333 514.697 123.333 507.333V438C123.333 430.636 117.364 424.667 110 424.667H40.6667Z"
          fill="#A855F7" fill-opacity="0.1"/>
    <path fill-rule="evenodd" clip-rule="evenodd"
          d="M32.6667 404C17.9391 404 6 392.061 6 377.333L6.00001 302.667C6.00001 287.939 17.9391 276 32.6667 276L107.333 276C122.061 276 134 287.939 134 302.667L134 377.333C134 392.061 122.061 404 107.333 404L32.6667 404ZM99.3333 393.333C106.697 393.333 112.667 387.364 112.667 380L112.667 310.667C112.667 303.303 106.697 297.333 99.3333 297.333L30 297.333C22.6362 297.333 16.6667 303.303 16.6667 310.667L16.6667 380C16.6667 387.364 22.6362 393.333 30 393.333L99.3333 393.333Z"
          fill="#A855F7" fill-opacity="0.1"/>
    <path fill-rule="evenodd" clip-rule="evenodd"
          d="M110.333 138C125.061 138 137 149.939 137 164.667V239.333C137 254.061 125.061 266 110.333 266H35.6667C20.9391 266 9 254.061 9 239.333V164.667C9 149.939 20.9391 138 35.6667 138H110.333ZM43.6667 148.667C36.3029 148.667 30.3333 154.636 30.3333 162V231.333C30.3333 238.697 36.3029 244.667 43.6667 244.667H113C120.364 244.667 126.333 238.697 126.333 231.333V162C126.333 154.636 120.364 148.667 113 148.667H43.6667Z"
          fill="#A855F7" fill-opacity="0.1"/>
    <path fill-rule="evenodd" clip-rule="evenodd"
          d="M35.6667 128C20.9391 128 9 116.061 9 101.333L9.00001 26.6667C9.00001 11.9391 20.9391 -1.28753e-06 35.6667 0L110.333 6.52757e-06C125.061 7.81509e-06 137 11.9391 137 26.6667L137 101.333C137 116.061 125.061 128 110.333 128L35.6667 128ZM102.333 117.333C109.697 117.333 115.667 111.364 115.667 104L115.667 34.6667C115.667 27.3029 109.697 21.3333 102.333 21.3333L33 21.3333C25.6362 21.3333 19.6667 27.3029 19.6667 34.6667L19.6667 104C19.6667 111.364 25.6362 117.333 33 117.333L102.333 117.333Z"
          fill="#A855F7" fill-opacity="0.1"/>
</svg>